<svg width="1280" height="720" viewBox="0 0 1280 720" fill="none" xmlns="http://www.w3.org/2000/svg">
<g clip-path="url(#clip0_161_569)">
<rect width="1280" height="720" fill="white"/>
<rect width="640" height="719.236" fill="#6EA600"/>
<g opacity="0.32">
<path d="M639.001 -1H-1V606.559H639.001V-1Z" stroke="white" stroke-width="2.2443" stroke-miterlimit="10"/>
<path d="M-1 150.644H639.001L158.23 606.559V-1" stroke="white" stroke-width="2.2443" stroke-miterlimit="10"/>
<path d="M-1 302.288H639.001" stroke="white" stroke-width="2.2443" stroke-miterlimit="10"/>
<path d="M639.001 454.916H-1L478.744 -1V606.559" stroke="white" stroke-width="2.2443" stroke-miterlimit="10"/>
<path d="M319.516 606.559V-1" stroke="white" stroke-width="2.2443" stroke-miterlimit="10"/>
<path d="M-1 606.56H639.001V1214.12H-1" stroke="white" stroke-width="2.2443" stroke-miterlimit="10"/>
<path d="M-1 758.203H639.001L158.23 1214.12V606.56" stroke="white" stroke-width="2.2443" stroke-miterlimit="10"/>
<path d="M639.001 1062.48H-1L478.744 606.56V1214.12" stroke="white" stroke-width="2.2443" stroke-miterlimit="10"/>
<path d="M319.516 1214.12V606.56" stroke="white" stroke-width="2.2443" stroke-miterlimit="10"/>
</g>
<rect width="640" height="719.236" transform="translate(640)" fill="white"/>
<g clip-path="url(#clip1_161_569)">
<path d="M722.797 346.831H715.191V339.225H722.797V320.558H731.716V339.225H743.781V346.831H731.716V414.897H722.797V346.831Z" fill="#231F20"/>
<path d="M751.869 301.695H760.787V346.088C762.382 343.444 764.371 341.454 766.754 340.121C769.136 338.788 771.825 338.132 774.819 338.132C780 338.132 783.737 340.034 786.12 343.837C788.481 347.64 789.639 353.826 789.639 362.394V414.897H780.721V361.017C780.721 355.094 780.043 351.028 778.688 348.821C777.333 346.613 774.994 345.498 771.628 345.498C768.087 345.498 765.399 347.094 763.541 350.329C761.705 353.542 760.765 358.263 760.765 364.493V414.897H751.847V301.695H751.869Z" fill="#231F20"/>
<path d="M810.47 310.459C812.087 310.459 813.464 311.028 814.557 312.121C815.65 313.235 816.196 314.591 816.196 316.23C816.196 317.76 815.628 319.115 814.492 320.252C813.377 321.41 812.022 321.979 810.47 321.979C808.918 321.979 807.672 321.388 806.535 320.23C805.42 319.05 804.874 317.673 804.874 316.099C804.874 314.525 805.399 313.192 806.492 312.099C807.563 311.006 808.896 310.459 810.47 310.459ZM805.814 339.203H814.994V414.875H805.814V339.225V339.203Z" fill="#231F20"/>
<path d="M832.546 339.225H841.464V346.111C843.06 343.466 845.049 341.477 847.432 340.143C849.814 338.81 852.503 338.154 855.475 338.154C860.656 338.154 864.415 340.056 866.776 343.859C869.137 347.663 870.317 353.848 870.317 362.417V414.919H861.399V361.04C861.399 355.116 860.721 351.05 859.366 348.843C858.011 346.635 855.672 345.52 852.328 345.52C848.765 345.52 846.076 347.116 844.219 350.351C842.361 353.564 841.464 358.285 841.464 364.515V414.919H832.546V339.225Z" fill="#231F20"/>
<path d="M886.776 301.87H895.672V414.875H886.776V301.87ZM914.448 339.225H924.546L905.005 372.077L931.104 414.875H920.415L895.956 372.689L914.448 339.203V339.225Z" fill="#231F20"/>
<path d="M961.114 371.619H931.912V378.985H961.114V371.619Z" fill="#231F20"/>
<path d="M1006.51 341.017V352.012C1005.14 350.242 1003.74 348.93 1002.3 348.099C1000.85 347.269 999.279 346.854 997.552 346.854C992.918 346.854 989.508 349.411 987.388 354.504C985.29 359.597 984.197 367.706 984.197 378.832C984.197 388.143 985.29 395.16 987.476 399.903C989.661 404.646 992.94 407.007 997.312 407.007C999.191 407.007 1000.92 406.526 1002.45 405.564C1003.98 404.624 1005.33 403.203 1006.47 401.28V412.274C1004.79 413.433 1003.08 414.307 1001.33 414.875C999.607 415.422 997.727 415.706 995.738 415.706C989.312 415.706 984.262 412.406 980.547 405.783C976.853 399.181 974.995 390.001 974.995 378.263C974.995 364.93 976.874 354.919 980.634 348.187C984.394 341.476 990.011 338.11 997.486 338.11C999.104 338.11 1000.7 338.351 1002.23 338.854C1003.76 339.356 1005.16 340.056 1006.45 340.996L1006.51 341.017Z" fill="#231F20"/>
<path d="M1054.36 379.509H1022.36V382.088C1022.36 390.438 1023.43 396.907 1025.53 401.476C1027.65 406.066 1030.56 408.361 1034.27 408.361C1037.33 408.361 1039.85 406.722 1041.79 403.443C1043.72 400.164 1044.77 395.727 1044.92 390.132H1053.57C1053.22 398.197 1051.28 404.58 1047.83 409.257C1044.31 413.935 1039.78 416.252 1034.16 416.252C1027.34 416.252 1022.23 413.039 1018.82 406.591C1015.41 400.121 1013.71 390.503 1013.71 377.651C1013.71 364.798 1015.54 355.224 1019.19 348.274C1022.89 341.345 1027.98 337.869 1034.54 337.869C1041.09 337.869 1046.03 341.17 1049.36 347.749C1052.68 354.35 1054.34 364.099 1054.34 377.017V379.53M1045.71 371.924C1045.64 363.815 1044.68 357.519 1042.75 353.039C1040.85 348.558 1038.16 346.328 1034.73 346.328C1031.1 346.328 1028.2 348.536 1026.03 352.951C1023.87 357.366 1022.64 363.705 1022.34 371.924H1045.68H1045.71Z" fill="#231F20"/>
<path d="M1075.56 301.87H1066.38V414.875H1075.56V301.87Z" fill="#231F20"/>
<path d="M1102.03 301.87H1092.85V414.875H1102.03V301.87Z" fill="#231F20"/>
<path fill-rule="evenodd" clip-rule="evenodd" d="M810.623 310.547C813.551 310.547 815.934 313.017 815.934 316.011C815.934 319.006 813.551 321.498 810.623 321.498C807.694 321.498 805.311 319.028 805.311 316.011C805.311 312.995 807.694 310.547 810.623 310.547Z" fill="#231F20"/>
<path d="M722.797 346.831H715.191V339.225H722.797V320.558H731.716V339.225H743.781V346.831H731.716V414.897H722.797V346.831Z" fill="#231F20"/>
<path d="M1203.59 374.722H1130.49V301.695H1203.59V374.722ZM1131.17 374.045H1202.91V302.372H1131.17V374.067V374.045Z" fill="#D1D3D4"/>
<path d="M1203.26 355.968H1130.84V356.646H1203.26V355.968Z" fill="#D1D3D4"/>
<path d="M1203.26 337.869H1130.84V338.547H1203.26V337.869Z" fill="#D1D3D4"/>
<path d="M1203.26 319.793H1130.84V320.471H1203.26V319.793Z" fill="#D1D3D4"/>
<path d="M1149.29 302.022H1148.61V374.394H1149.29V302.022Z" fill="#D1D3D4"/>
<path d="M1167.39 302.022H1166.71V374.394H1167.39V302.022Z" fill="#D1D3D4"/>
<path d="M1185.49 302.022H1184.81V374.394H1185.49V302.022Z" fill="#D1D3D4"/>
<path d="M1149.2 374.635L1148.72 374.154L1203.02 319.903L1203.5 320.384L1149.2 374.635Z" fill="#D1D3D4"/>
<path d="M1131.04 356.493L1130.58 356.034L1184.85 301.782L1185.31 302.263L1131.04 356.493Z" fill="#D1D3D4"/>
<path fill-rule="evenodd" clip-rule="evenodd" d="M1130.84 356.296V310.919C1131.32 305.433 1134.21 302.329 1139.93 302.045H1148.96V338.22L1130.86 356.318L1130.84 356.296Z" fill="#C41C5A"/>
<path d="M1130.49 357.105V310.919C1130.99 305.083 1134.16 301.979 1139.89 301.695H1149.27V338.351L1149.18 338.438L1130.51 357.105H1130.49ZM1139.91 302.372C1134.51 302.635 1131.65 305.454 1131.17 310.941V355.487L1148.61 338.066V302.372H1139.93H1139.91Z" fill="black"/>
<path fill-rule="evenodd" clip-rule="evenodd" d="M1148.94 374.395H1194.36C1199.85 373.914 1202.97 371.029 1203.26 365.324V356.318H1167.04L1148.94 374.417V374.395Z" fill="#D2D3D4"/>
<path d="M1148.94 374.722H1148.13L1148.7 374.154L1166.91 355.968H1203.59V365.323C1203.3 371.072 1200.2 374.22 1194.38 374.744H1148.92L1148.94 374.722ZM1149.75 374.045H1194.36C1199.85 373.564 1202.65 370.701 1202.91 365.28V356.624H1167.17L1149.73 374.045H1149.75Z" fill="black"/>
<path d="M1203.58 319.793H1202.91V358.656H1203.58V319.793Z" fill="black"/>
<path d="M1185.46 301.695H1146.58V302.372H1185.46V301.695Z" fill="black"/>
</g>
</g>
<defs>
<clipPath id="clip0_161_569">
<rect width="1280" height="720" fill="white"/>
</clipPath>
<clipPath id="clip1_161_569">
<rect width="488.394" height="114.536" fill="white" transform="translate(715.191 301.695)"/>
</clipPath>
</defs>
</svg>
